<?xml version="1.0" encoding="UTF-8" standalone="no"?>
<svg xmlns:rdf="http://www.w3.org/1999/02/22-rdf-syntax-ns#" xmlns="http://www.w3.org/2000/svg" height="12.752mm" width="206.59mm" version="1.1" xmlns:cc="http://creativecommons.org/ns#" xmlns:dc="http://purl.org/dc/elements/1.1/" viewBox="0 0 732.01272 45.18515">
 <g transform="translate(-3.8203 -86.821)">
  <g fill-opacity=".99216" fill="#ee1d23">
   <g transform="matrix(2.3922 0 0 -2.3922 44.443 89.834)">
    <path d="m0 0s-1.051-2.026-1.191-2.234c-0.141-0.28-0.281-0.28-0.493-0.14-0.281 0.14-1.123 0.627-1.123 0.627s0.774-3.349 0.774-3.629c0.068-0.28-0.212-0.489-0.493-0.28-0.069 0.069-1.543 1.746-1.543 1.746s-0.35-0.768-0.422-0.909c-0.069-0.139-0.139-0.277-0.35-0.209-0.281 0.07-1.615 0.35-1.615 0.35s0.494-1.673 0.562-1.885c0.068-0.167 0.14-0.349-0.14-0.488l-0.49-0.211s2.875-2.518 2.946-2.588c0.142-0.14 0.282-0.21 0.142-0.631-0.142-0.42-0.282-0.984-0.282-0.984s2.667 0.564 2.948 0.635c0.245 0.025 0.512-0.071 0.512-0.351 0-0.284-0.163-3.16-0.163-3.16h0.843s-0.163 2.876-0.163 3.16c0 0.28 0.266 0.376 0.514 0.351 0.281-0.071 2.946-0.635 2.946-0.635s-0.141 0.564-0.281 0.984c-0.141 0.421 0 0.491 0.14 0.631 0.071 0.07 2.947 2.588 2.947 2.588l-0.49 0.211c-0.281 0.139-0.207 0.321-0.14 0.488 0.068 0.212 0.561 1.885 0.561 1.885s-1.334-0.28-1.615-0.35c-0.209-0.068-0.281 0.07-0.351 0.209-0.069 0.141-0.42 0.909-0.42 0.909s-1.475-1.677-1.544-1.746c-0.28-0.209-0.561 0-0.491 0.28 0 0.28 0.772 3.629 0.772 3.629s-0.842-0.487-1.122-0.627c-0.21-0.14-0.353-0.14-0.491 0.14-0.14 0.208-1.194 2.234-1.194 2.234" fill-opacity=".99216" fill="#ee1d23"/>
   </g>
   <path d="m24.13 86.821h-20.31v40.337h20.31v-40.337z"/>
   <path d="m85.064 86.821h-20.312v40.337h20.312v-40.337z"/>
  </g>
  <g fill-opacity=".98824" fill="#231f20">
   <path d="m407.48 86.829h11.401v1.8492h-9.2028v5.2509h8.5784v1.8492h-8.5784v5.7126h9.2722v1.8492h-11.471v-16.511z"/>
   <g transform="matrix(2.3922 0 0 -2.3922 421.08 91.384)">
    <path d="m0 0h0.774v-0.793h0.019c0.347 0.619 0.909 0.909 1.624 0.909 1.315 0 1.721-0.754 1.721-1.827v-3.287h-0.822v3.384c0 0.609-0.387 1.005-1.015 1.005-0.996 0-1.479-0.667-1.479-1.566v-2.823h-0.822v4.998z" fill-opacity=".98824" fill="#231f20"/>
   </g>
   <path d="m438.83 103.34h-2.1051l-4.4399-11.956h2.1984l3.3515 9.9683h0.0454l3.263-9.9683h2.0573l-4.3706 11.956z"/>
   <path d="m445 89.235h1.9664v-2.4042h-1.9664v2.4042zm0 14.104h1.9664v-11.956h-1.9664v11.956z"/>
   <g transform="matrix(2.3922 0 0 -2.3922 449.82 91.384)">
    <path d="m0 0h0.773v-1.054h0.02c0.396 0.803 0.947 1.199 1.836 1.17v-0.87c-1.324 0-1.807-0.754-1.807-2.02v-2.224h-0.822v4.998z" fill-opacity=".98824" fill="#231f20"/>
   </g>
   <g transform="matrix(2.3922 0 0 -2.3922 462.62 91.107)">
    <path d="m0 0c1.585 0 2.427-1.15 2.427-2.62 0-1.459-0.842-2.61-2.427-2.61s-2.427 1.151-2.427 2.61c0 1.47 0.842 2.62 2.427 2.62m0-4.505c0.86 0 1.556 0.677 1.556 1.885 0 1.218-0.696 1.895-1.556 1.895s-1.556-0.677-1.556-1.895c0-1.208 0.696-1.885 1.556-1.885" fill-opacity=".98824" fill="#231f20"/>
   </g>
   <g transform="matrix(2.3922 0 0 -2.3922 470.68 91.384)">
    <path d="m0 0h0.774v-0.793h0.019c0.347 0.619 0.909 0.909 1.624 0.909 1.315 0 1.721-0.754 1.721-1.827v-3.287h-0.822v3.384c0 0.609-0.387 1.005-1.015 1.005-0.996 0-1.479-0.667-1.479-1.566v-2.823h-0.822v4.998z" fill-opacity=".98824" fill="#231f20"/>
   </g>
   <g transform="matrix(2.3922 0 0 -2.3922 483.45 91.384)">
    <path d="m0 0h0.773v-0.793h0.02c0.348 0.619 0.908 0.909 1.623 0.909 1.315 0 1.721-0.754 1.721-1.827v-3.287h-0.822v3.384c0 0.609-0.386 1.005-1.014 1.005-0.996 0-1.479-0.667-1.479-1.566v-2.823h-0.822v4.998z" fill-opacity=".98824" fill="#231f20"/>
   </g>
   <g transform="matrix(2.3922 0 0 -2.3922 506.41 99.548)">
    <path d="m0 0c-0.223-1.102-1.015-1.701-2.136-1.701-1.596 0-2.35 1.102-2.398 2.629 0 1.498 0.987 2.601 2.349 2.601 1.769 0 2.31-1.654 2.262-2.862h-3.741c-0.029-0.87 0.465-1.643 1.556-1.643 0.677 0 1.151 0.329 1.296 0.976h0.812zm-0.793 1.392c-0.038 0.783-0.629 1.411-1.44 1.411-0.86 0-1.373-0.647-1.431-1.411h2.871z" fill-opacity=".98824" fill="#231f20"/>
   </g>
   <g transform="matrix(2.3922 0 0 -2.3922 508.7 91.384)">
    <path d="m0 0h0.774v-0.735h0.019c0.367 0.561 0.928 0.851 1.614 0.851 0.609 0 1.17-0.241 1.373-0.851 0.338 0.532 0.928 0.851 1.566 0.851 0.995 0 1.662-0.416 1.662-1.45v-3.664h-0.822v3.277c0 0.619-0.164 1.112-0.966 1.112-0.793 0-1.305-0.503-1.305-1.276v-3.113h-0.822v3.277c0 0.648-0.203 1.112-0.937 1.112-0.976 0-1.334-0.899-1.334-1.276v-3.113h-0.822v4.998z" fill-opacity=".98824" fill="#231f20"/>
   </g>
   <g transform="matrix(2.3922 0 0 -2.3922 538.55 99.548)">
    <path d="m0 0c-0.222-1.102-1.015-1.701-2.136-1.701-1.595 0-2.349 1.102-2.398 2.629 0 1.498 0.987 2.601 2.35 2.601 1.768 0 2.31-1.654 2.262-2.862h-3.741c-0.029-0.87 0.464-1.643 1.556-1.643 0.677 0 1.15 0.329 1.296 0.976h0.811zm-0.793 1.392c-0.038 0.783-0.628 1.411-1.44 1.411-0.86 0-1.373-0.647-1.43-1.411h2.87z" fill-opacity=".98824" fill="#231f20"/>
   </g>
   <g transform="matrix(2.3922 0 0 -2.3922 540.84 91.384)">
    <path d="m0 0h0.773v-0.793h0.02c0.348 0.619 0.908 0.909 1.623 0.909 1.315 0 1.721-0.754 1.721-1.827v-3.287h-0.822v3.384c0 0.609-0.386 1.005-1.014 1.005-0.996 0-1.479-0.667-1.479-1.566v-2.823h-0.822v4.998z" fill-opacity=".98824" fill="#231f20"/>
   </g>
   <g transform="matrix(2.3922 0 0 -2.3922 556.28 91.384)">
    <path d="m0 0h0.996v-0.725h-0.996v-3.103c0-0.377 0.106-0.445 0.619-0.445h0.377v-0.725h-0.628c-0.851 0-1.19 0.174-1.19 1.093v3.18h-0.851v0.725h0.851v1.498h0.822v-1.498z" fill-opacity=".98824" fill="#231f20"/>
   </g>
   <g transform="matrix(2.3922 0 0 -2.3922 577.47 99.548)">
    <path d="m0 0c-0.222-1.102-1.015-1.701-2.136-1.701-1.595 0-2.349 1.102-2.398 2.629 0 1.498 0.987 2.601 2.35 2.601 1.768 0 2.31-1.654 2.262-2.862h-3.741c-0.029-0.87 0.464-1.643 1.556-1.643 0.677 0 1.15 0.329 1.296 0.976h0.811zm-0.793 1.392c-0.038 0.783-0.628 1.411-1.44 1.411-0.86 0-1.373-0.647-1.43-1.411h2.87z" fill-opacity=".98824" fill="#231f20"/>
   </g>
   <g transform="matrix(2.3922 0 0 -2.3922 582.34 91.384)">
    <path d="m0 0h0.996v-0.725h-0.996v-3.103c0-0.377 0.106-0.445 0.619-0.445h0.377v-0.725h-0.628c-0.851 0-1.19 0.174-1.19 1.093v3.18h-0.851v0.725h0.851v1.498h0.822v-1.498z" fill-opacity=".98824" fill="#231f20"/>
   </g>
   <g transform="matrix(2.3922 0 0 -2.3922 419.09 115.61)">
    <path d="m0 0c-0.193 0.976-0.976 1.469-1.933 1.469-1.644 0-2.339-1.353-2.339-2.793 0-1.576 0.695-2.891 2.348-2.891 1.209 0 1.905 0.851 1.992 1.991h0.918c-0.174-1.72-1.246-2.764-2.987-2.764-2.145 0-3.19 1.585-3.19 3.596 0 2.001 1.141 3.634 3.267 3.634 1.441 0 2.63-0.773 2.843-2.242h-0.919z" fill-opacity=".98824" fill="#231f20"/>
   </g>
   <g transform="matrix(2.3922 0 0 -2.3922 423.76 110.64)">
    <path d="m0 0h0.822v-2.639h0.019c0.27 0.599 0.976 0.851 1.575 0.851 1.315 0 1.721-0.754 1.721-1.827v-3.287h-0.822v3.383c0 0.609-0.386 1.005-1.014 1.005-0.996 0-1.479-0.666-1.479-1.565v-2.823h-0.822v6.902z" fill-opacity=".98824" fill="#231f20"/>
   </g>
   <g transform="matrix(2.3922 0 0 -2.3922 447.11 127.1)">
    <path d="m0 0c-0.145-0.087-0.328-0.135-0.589-0.135-0.426 0-0.696 0.232-0.696 0.773-0.455-0.532-1.064-0.773-1.76-0.773-0.908 0-1.653 0.406-1.653 1.401 0 1.131 0.841 1.373 1.692 1.537 0.908 0.174 1.682 0.116 1.682 0.735 0 0.715-0.59 0.831-1.112 0.831-0.696 0-1.208-0.212-1.247-0.947h-0.821c0.048 1.237 1.005 1.672 2.117 1.672 0.899 0 1.875-0.203 1.875-1.372v-2.572c0-0.386 0-0.561 0.261-0.561 0.068 0 0.145 0.01 0.251 0.049v-0.638zm-1.334 2.562c-0.319-0.232-0.937-0.242-1.488-0.338-0.542-0.097-1.006-0.291-1.006-0.9 0-0.541 0.464-0.735 0.967-0.735 1.082 0 1.527 0.677 1.527 1.131v0.842z" fill-opacity=".98824" fill="#231f20"/>
   </g>
   <g transform="matrix(2.3922 0 0 -2.3922 448.96 115.2)">
    <path d="m0 0h0.774v-0.793h0.019c0.348 0.619 0.909 0.909 1.624 0.909 1.315 0 1.721-0.754 1.721-1.827v-3.287h-0.822v3.384c0 0.609-0.387 1.005-1.015 1.005-0.996 0-1.479-0.667-1.479-1.566v-2.823h-0.822v4.998z" fill-opacity=".98824" fill="#231f20"/>
   </g>
   <g transform="matrix(2.3922 0 0 -2.3922 472.04 126.13)">
    <path d="m0 0c0-1.624-0.744-2.455-2.32-2.455-0.938 0-2.02 0.377-2.068 1.469h0.821c0.039-0.599 0.754-0.812 1.296-0.812 1.072 0 1.498 0.773 1.498 1.894v0.329h-0.02c-0.27-0.609-0.927-0.908-1.556-0.908-1.488 0-2.233 1.169-2.233 2.532 0 1.18 0.581 2.639 2.311 2.639 0.628 0 1.189-0.28 1.488-0.831h0.01v0.715h0.773v-4.572zm-0.811 2.175c0 0.88-0.388 1.788-1.422 1.788-1.053 0-1.479-0.86-1.479-1.817 0-0.899 0.329-1.904 1.411-1.904 1.083 0 1.49 0.995 1.49 1.933" fill-opacity=".98824" fill="#231f20"/>
   </g>
   <g transform="matrix(2.3922 0 0 -2.3922 485.15 123.36)">
    <path d="m0 0c-0.223-1.102-1.015-1.701-2.136-1.701-1.596 0-2.35 1.102-2.398 2.629 0 1.498 0.987 2.601 2.349 2.601 1.769 0 2.31-1.654 2.262-2.862h-3.741c-0.029-0.87 0.465-1.643 1.556-1.643 0.677 0 1.151 0.329 1.296 0.976h0.812zm-0.793 1.392c-0.038 0.783-0.628 1.411-1.44 1.411-0.86 0-1.373-0.647-1.431-1.411h2.871z" fill-opacity=".98824" fill="#231f20"/>
   </g>
   <g transform="matrix(2.3922 0 0 -2.3922 487.43 115.2)">
    <path d="m0 0h0.774v-0.735h0.019c0.367 0.561 0.928 0.851 1.614 0.851 0.609 0 1.17-0.242 1.373-0.851 0.338 0.532 0.928 0.851 1.566 0.851 0.995 0 1.662-0.416 1.662-1.45v-3.664h-0.822v3.277c0 0.619-0.164 1.112-0.966 1.112-0.793 0-1.305-0.503-1.305-1.276v-3.113h-0.822v3.277c0 0.648-0.203 1.112-0.937 1.112-0.976 0-1.334-0.899-1.334-1.276v-3.113h-0.822v4.998z" fill-opacity=".98824" fill="#231f20"/>
   </g>
   <g transform="matrix(2.3922 0 0 -2.3922 517.29 123.36)">
    <path d="m0 0c-0.222-1.102-1.015-1.701-2.136-1.701-1.595 0-2.349 1.102-2.398 2.629 0 1.498 0.987 2.601 2.35 2.601 1.768 0 2.31-1.654 2.262-2.862h-3.741c-0.029-0.87 0.464-1.643 1.556-1.643 0.677 0 1.15 0.329 1.296 0.976h0.811zm-0.793 1.392c-0.038 0.783-0.628 1.411-1.44 1.411-0.86 0-1.373-0.647-1.43-1.411h2.87z" fill-opacity=".98824" fill="#231f20"/>
   </g>
   <g transform="matrix(2.3922 0 0 -2.3922 519.58 115.2)">
    <path d="m0 0h0.773v-0.793h0.02c0.348 0.619 0.908 0.909 1.623 0.909 1.315 0 1.721-0.754 1.721-1.827v-3.287h-0.822v3.384c0 0.609-0.386 1.005-1.014 1.005-0.996 0-1.479-0.667-1.479-1.566v-2.823h-0.822v4.998z" fill-opacity=".98824" fill="#231f20"/>
   </g>
   <g transform="matrix(2.3922 0 0 -2.3922 535.02 115.2)">
    <path d="m0 0h0.996v-0.725h-0.996v-3.103c0-0.377 0.106-0.445 0.619-0.445h0.377v-0.725h-0.628c-0.851 0-1.19 0.174-1.19 1.093v3.18h-0.851v0.725h0.851v1.498h0.822v-1.498z" fill-opacity=".98824" fill="#231f20"/>
   </g>
   <g transform="matrix(2.3922 0 0 -2.3922 554.12 119.04)">
    <path d="m0 0c-0.126 0.628-0.56 0.996-1.237 0.996-1.19 0-1.556-0.938-1.556-1.953 0-0.918 0.415-1.827 1.459-1.827 0.792 0 1.266 0.464 1.373 1.218h0.841c-0.184-1.218-0.948-1.943-2.205-1.943-1.527 0-2.339 1.064-2.339 2.552 0 1.499 0.774 2.678 2.359 2.678 1.131 0 2.039-0.532 2.156-1.721h-0.851z" fill-opacity=".98824" fill="#231f20"/>
   </g>
   <path d="m558.48 127.15h1.9664v-16.511h-1.9664v16.511z"/>
   <path d="m563.39 113.05h1.9664v-2.4066h-1.9664v2.4066zm0 14.104h1.9664v-11.956h-1.9664v11.956z"/>
   <g transform="matrix(2.3922 0 0 -2.3922 568.25 115.2)">
    <path d="m0 0h0.774v-0.735h0.019c0.367 0.561 0.928 0.851 1.614 0.851 0.609 0 1.169-0.242 1.373-0.851 0.338 0.532 0.928 0.851 1.566 0.851 0.996 0 1.662-0.416 1.662-1.45v-3.664h-0.822v3.277c0 0.619-0.164 1.112-0.966 1.112-0.793 0-1.305-0.503-1.305-1.276v-3.113h-0.822v3.277c0 0.648-0.203 1.112-0.937 1.112-0.976 0-1.334-0.899-1.334-1.276v-3.113h-0.822v4.998z" fill-opacity=".98824" fill="#231f20"/>
   </g>
   <g transform="matrix(2.3922 0 0 -2.3922 598.54 127.1)">
    <path d="m0 0c-0.145-0.087-0.328-0.135-0.59-0.135-0.425 0-0.695 0.232-0.695 0.773-0.455-0.532-1.064-0.773-1.76-0.773-0.909 0-1.653 0.406-1.653 1.401 0 1.131 0.841 1.373 1.692 1.537 0.908 0.174 1.682 0.116 1.682 0.735 0 0.715-0.59 0.831-1.112 0.831-0.696 0-1.208-0.212-1.247-0.947h-0.822c0.048 1.237 1.006 1.672 2.118 1.672 0.899 0 1.875-0.203 1.875-1.372v-2.572c0-0.386 0-0.561 0.261-0.561 0.068 0 0.145 0.01 0.251 0.049v-0.638zm-1.334 2.562c-0.319-0.232-0.938-0.242-1.489-0.338-0.541-0.097-1.005-0.291-1.005-0.9 0-0.541 0.464-0.735 0.967-0.735 1.082 0 1.527 0.677 1.527 1.131v0.842z" fill-opacity=".98824" fill="#231f20"/>
   </g>
   <g transform="matrix(2.3922 0 0 -2.3922 602.99 115.2)">
    <path d="m0 0h0.996v-0.725h-0.996v-3.103c0-0.377 0.107-0.445 0.619-0.445h0.377v-0.725h-0.628c-0.851 0-1.189 0.174-1.189 1.093v3.18h-0.851v0.725h0.851v1.498h0.821v-1.498z" fill-opacity=".98824" fill="#231f20"/>
   </g>
   <path d="m607.43 113.05h1.9664v-2.4066h-1.9664v2.4066zm0 14.104h1.9664v-11.956h-1.9664v11.956z"/>
   <g transform="matrix(2.3922 0 0 -2.3922 623.06 131.73)">
    <path d="m0 0h-0.822v2.59h-0.019c-0.27-0.551-0.909-0.792-1.595-0.792-1.537 0-2.301 1.218-2.301 2.629s0.754 2.601 2.282 2.601c0.512 0 1.247-0.194 1.614-0.784h0.019v0.667h0.822v-6.911zm-2.32 2.523c1.102 0 1.527 0.947 1.527 1.885 0 0.986-0.444 1.894-1.575 1.894-1.122 0-1.499-0.956-1.499-1.933 0-0.938 0.483-1.846 1.547-1.846" fill-opacity=".98824" fill="#231f20"/>
   </g>
   <g transform="matrix(2.3922 0 0 -2.3922 635.85 127.15)">
    <path d="m0 0h-0.773v0.793h-0.02c-0.348-0.619-0.908-0.909-1.623-0.909-1.315 0-1.721 0.754-1.721 1.827v3.287h0.822v-3.384c0-0.609 0.386-1.005 1.014-1.005 0.996 0 1.479 0.667 1.479 1.566v2.823h0.822v-4.998z" fill-opacity=".98824" fill="#231f20"/>
   </g>
   <g transform="matrix(2.3922 0 0 -2.3922 648.96 123.36)">
    <path d="m0 0c-0.222-1.102-1.015-1.701-2.136-1.701-1.596 0-2.349 1.102-2.398 2.629 0 1.498 0.987 2.601 2.349 2.601 1.769 0 2.311-1.654 2.262-2.862h-3.741c-0.028-0.87 0.465-1.643 1.557-1.643 0.676 0 1.15 0.329 1.295 0.976h0.812zm-0.793 1.392c-0.038 0.783-0.628 1.411-1.44 1.411-0.86 0-1.373-0.647-1.431-1.411h2.871z" fill-opacity=".98824" fill="#231f20"/>
   </g>
   <g transform="matrix(2.3922 0 0 -2.3922 669.54 115.61)">
    <path d="m0 0c-0.194 0.976-0.976 1.469-1.933 1.469-1.644 0-2.339-1.353-2.339-2.793 0-1.576 0.695-2.891 2.348-2.891 1.209 0 1.905 0.851 1.992 1.991h0.918c-0.174-1.72-1.246-2.764-2.987-2.764-2.146 0-3.19 1.585-3.19 3.596 0 2.001 1.141 3.634 3.267 3.634 1.441 0 2.63-0.773 2.843-2.242h-0.919z" fill-opacity=".98824" fill="#231f20"/>
   </g>
   <g transform="matrix(2.3922 0 0 -2.3922 684.68 127.1)">
    <path d="m0 0c-0.145-0.087-0.329-0.135-0.59-0.135-0.425 0-0.696 0.232-0.696 0.773-0.454-0.532-1.063-0.773-1.759-0.773-0.909 0-1.653 0.406-1.653 1.401 0 1.131 0.841 1.373 1.691 1.537 0.909 0.174 1.682 0.116 1.682 0.735 0 0.715-0.589 0.831-1.111 0.831-0.696 0-1.208-0.212-1.247-0.947h-0.822c0.049 1.237 1.006 1.672 2.117 1.672 0.9 0 1.876-0.203 1.876-1.372v-2.572c0-0.386 0-0.561 0.261-0.561 0.067 0 0.145 0.01 0.251 0.049v-0.638zm-1.334 2.562c-0.319-0.232-0.938-0.242-1.489-0.338-0.541-0.097-1.005-0.291-1.005-0.9 0-0.541 0.464-0.735 0.967-0.735 1.082 0 1.527 0.677 1.527 1.131v0.842z" fill-opacity=".98824" fill="#231f20"/>
   </g>
   <g transform="matrix(2.3922 0 0 -2.3922 686.53 115.2)">
    <path d="m0 0h0.774v-0.793h0.019c0.347 0.619 0.908 0.909 1.623 0.909 1.315 0 1.721-0.754 1.721-1.827v-3.287h-0.822v3.384c0 0.609-0.386 1.005-1.014 1.005-0.996 0-1.479-0.667-1.479-1.566v-2.823h-0.822v4.998z" fill-opacity=".98824" fill="#231f20"/>
   </g>
   <g transform="matrix(2.3922 0 0 -2.3922 709.88 127.1)">
    <path d="m0 0c-0.145-0.087-0.329-0.135-0.589-0.135-0.426 0-0.697 0.232-0.697 0.773-0.454-0.532-1.063-0.773-1.759-0.773-0.909 0-1.653 0.406-1.653 1.401 0 1.131 0.841 1.373 1.691 1.537 0.909 0.174 1.682 0.116 1.682 0.735 0 0.715-0.589 0.831-1.111 0.831-0.696 0-1.208-0.212-1.247-0.947h-0.821c0.048 1.237 1.005 1.672 2.116 1.672 0.899 0 1.876-0.203 1.876-1.372v-2.572c0-0.386 0-0.561 0.26-0.561 0.068 0 0.146 0.01 0.252 0.049v-0.638zm-1.334 2.562c-0.319-0.232-0.937-0.242-1.488-0.338-0.542-0.097-1.006-0.291-1.006-0.9 0-0.541 0.464-0.735 0.967-0.735 1.082 0 1.527 0.677 1.527 1.131v0.842z" fill-opacity=".98824" fill="#231f20"/>
   </g>
   <g transform="matrix(2.3922 0 0 -2.3922 722.3 127.15)">
    <path d="m0 0h-0.822v0.676h-0.019c-0.27-0.551-0.909-0.792-1.595-0.792-1.537 0-2.301 1.218-2.301 2.629s0.754 2.601 2.282 2.601c0.512 0 1.247-0.194 1.614-0.783h0.019v2.571h0.822v-6.902zm-2.32 0.609c1.102 0 1.527 0.947 1.527 1.885 0 0.986-0.444 1.894-1.575 1.894-1.122 0-1.499-0.956-1.499-1.933 0-0.937 0.483-1.846 1.547-1.846" fill-opacity=".98824" fill="#231f20"/>
   </g>
   <g transform="matrix(2.3922 0 0 -2.3922 735.83 127.1)">
    <path d="m0 0c-0.145-0.087-0.329-0.135-0.59-0.135-0.425 0-0.696 0.232-0.696 0.773-0.454-0.532-1.063-0.773-1.759-0.773-0.909 0-1.653 0.406-1.653 1.401 0 1.131 0.841 1.373 1.691 1.537 0.909 0.174 1.682 0.116 1.682 0.735 0 0.715-0.589 0.831-1.111 0.831-0.696 0-1.208-0.212-1.247-0.947h-0.822c0.049 1.237 1.006 1.672 2.117 1.672 0.899 0 1.876-0.203 1.876-1.372v-2.572c0-0.386 0-0.561 0.26-0.561 0.068 0 0.146 0.01 0.252 0.049v-0.638zm-1.334 2.562c-0.319-0.232-0.938-0.242-1.488-0.338-0.542-0.097-1.006-0.291-1.006-0.9 0-0.541 0.464-0.735 0.967-0.735 1.082 0 1.527 0.677 1.527 1.131v0.842z" fill-opacity=".98824" fill="#231f20"/>
   </g>
   <path d="m120.88 86.829h11.399v1.8492h-9.2028v5.2509h8.5808v1.8492h-8.5808v5.7126h9.2722v1.8492h-11.468v-16.511z"/>
   <g transform="matrix(2.3922 0 0 -2.3922 134.47 91.384)">
    <path d="m0 0h0.773v-0.793h0.02c0.348 0.619 0.908 0.909 1.624 0.909 1.314 0 1.72-0.754 1.72-1.827v-3.287h-0.821v3.384c0 0.609-0.387 1.005-1.015 1.005-0.996 0-1.479-0.667-1.479-1.566v-2.823h-0.822v4.998z" fill-opacity=".98824" fill="#231f20"/>
   </g>
   <path d="m152.23 103.34h-2.1052l-4.4375-11.956h2.196l3.3515 9.9683h0.0479l3.2606-9.9683h2.0573l-4.3706 11.956z"/>
   <path d="m158.39 89.235h1.9664v-2.4042h-1.9664v2.4042zm0 14.104h1.9664v-11.956h-1.9664v11.956z"/>
   <g transform="matrix(2.3922 0 0 -2.3922 163.21 91.384)">
    <path d="m0 0h0.773v-1.054h0.02c0.396 0.803 0.947 1.199 1.836 1.17v-0.87c-1.324 0-1.807-0.754-1.807-2.02v-2.224h-0.822v4.998z" fill-opacity=".98824" fill="#231f20"/>
   </g>
   <g transform="matrix(2.3922 0 0 -2.3922 176.02 91.107)">
    <path d="m0 0c1.586 0 2.427-1.15 2.427-2.62 0-1.459-0.841-2.61-2.427-2.61-1.585 0-2.426 1.151-2.426 2.61 0 1.47 0.841 2.62 2.426 2.62m0-4.505c0.86 0 1.557 0.677 1.557 1.885 0 1.218-0.697 1.895-1.557 1.895s-1.556-0.677-1.556-1.895c0-1.208 0.696-1.885 1.556-1.885" fill-opacity=".98824" fill="#231f20"/>
   </g>
   <g transform="matrix(2.3922 0 0 -2.3922 184.08 91.384)">
    <path d="m0 0h0.773v-0.793h0.02c0.348 0.619 0.908 0.909 1.624 0.909 1.314 0 1.72-0.754 1.72-1.827v-3.287h-0.821v3.384c0 0.609-0.387 1.005-1.015 1.005-0.996 0-1.479-0.667-1.479-1.566v-2.823h-0.822v4.998z" fill-opacity=".98824" fill="#231f20"/>
   </g>
   <g transform="matrix(2.3922 0 0 -2.3922 196.85 91.384)">
    <path d="m0 0h0.773v-0.735h0.02c0.367 0.561 0.928 0.851 1.614 0.851 0.609 0 1.17-0.241 1.373-0.851 0.338 0.532 0.928 0.851 1.565 0.851 0.996 0 1.663-0.416 1.663-1.45v-3.664h-0.822v3.277c0 0.619-0.164 1.112-0.966 1.112-0.793 0-1.305-0.503-1.305-1.276v-3.113h-0.822v3.277c0 0.648-0.203 1.112-0.938 1.112-0.976 0-1.333-0.899-1.333-1.276v-3.113h-0.822v4.998z" fill-opacity=".98824" fill="#231f20"/>
   </g>
   <g transform="matrix(2.3922 0 0 -2.3922 226.7 99.548)">
    <path d="m0 0c-0.222-1.102-1.015-1.701-2.136-1.701-1.595 0-2.349 1.102-2.398 2.629 0 1.498 0.987 2.601 2.349 2.601 1.769 0 2.311-1.654 2.263-2.862h-3.741c-0.03-0.87 0.464-1.643 1.556-1.643 0.676 0 1.15 0.329 1.295 0.976h0.812zm-0.793 1.392c-0.038 0.783-0.628 1.411-1.44 1.411-0.86 0-1.373-0.647-1.43-1.411h2.87z" fill-opacity=".98824" fill="#231f20"/>
   </g>
   <g transform="matrix(2.3922 0 0 -2.3922 228.99 91.384)">
    <path d="m0 0h0.773v-0.793h0.02c0.348 0.619 0.908 0.909 1.624 0.909 1.314 0 1.72-0.754 1.72-1.827v-3.287h-0.821v3.384c0 0.609-0.387 1.005-1.015 1.005-0.996 0-1.479-0.667-1.479-1.566v-2.823h-0.822v4.998z" fill-opacity=".98824" fill="#231f20"/>
   </g>
   <g transform="matrix(2.3922 0 0 -2.3922 244.43 91.384)">
    <path d="m0 0h0.996v-0.725h-0.996v-3.103c0-0.377 0.107-0.445 0.619-0.445h0.377v-0.725h-0.628c-0.851 0-1.189 0.174-1.189 1.093v3.18h-0.851v0.725h0.851v1.498h0.821v-1.498z" fill-opacity=".98824" fill="#231f20"/>
   </g>
   <g transform="matrix(2.3922 0 0 -2.3922 266.01 103.29)">
    <path d="m0 0c-0.145-0.087-0.329-0.135-0.59-0.135-0.425 0-0.696 0.232-0.696 0.773-0.454-0.532-1.063-0.773-1.759-0.773-0.908 0-1.653 0.406-1.653 1.401 0 1.131 0.841 1.373 1.692 1.537 0.908 0.174 1.682 0.116 1.682 0.735 0 0.715-0.59 0.831-1.112 0.831-0.696 0-1.208-0.212-1.247-0.947h-0.821c0.048 1.237 1.005 1.672 2.116 1.672 0.899 0 1.876-0.203 1.876-1.372v-2.572c0-0.386 0-0.561 0.261-0.561 0.067 0 0.144 0.01 0.251 0.049v-0.638zm-1.334 2.562c-0.319-0.232-0.938-0.242-1.489-0.339-0.541-0.096-1.005-0.29-1.005-0.899 0-0.541 0.464-0.735 0.967-0.735 1.082 0 1.527 0.677 1.527 1.132v0.841z" fill-opacity=".98824" fill="#231f20"/>
   </g>
   <g transform="matrix(2.3922 0 0 -2.3922 267.86 91.384)">
    <path d="m0 0h0.773v-0.793h0.02c0.348 0.619 0.908 0.909 1.624 0.909 1.314 0 1.72-0.754 1.72-1.827v-3.287h-0.821v3.384c0 0.609-0.387 1.005-1.015 1.005-0.996 0-1.479-0.667-1.479-1.566v-2.823h-0.822v4.998z" fill-opacity=".98824" fill="#231f20"/>
   </g>
   <g transform="matrix(2.3922 0 0 -2.3922 291.35 103.34)">
    <path d="m0 0h-0.822v0.676h-0.019c-0.271-0.551-0.909-0.792-1.595-0.792-1.537 0-2.301 1.218-2.301 2.629s0.754 2.601 2.282 2.601c0.512 0 1.247-0.194 1.614-0.783h0.019v2.571h0.822v-6.902zm-2.32 0.609c1.102 0 1.527 0.947 1.527 1.885 0 0.986-0.444 1.894-1.575 1.894-1.122 0-1.499-0.956-1.499-1.933 0-0.937 0.484-1.846 1.547-1.846" fill-opacity=".98824" fill="#231f20"/>
   </g>
   <g transform="matrix(2.3922 0 0 -2.3922 132.49 115.61)">
    <path d="m0 0c-0.193 0.976-0.976 1.469-1.933 1.469-1.644 0-2.339-1.353-2.339-2.793 0-1.576 0.695-2.891 2.348-2.891 1.209 0 1.905 0.851 1.992 1.991h0.918c-0.174-1.72-1.247-2.764-2.987-2.764-2.146 0-3.19 1.585-3.19 3.596 0 2.001 1.141 3.634 3.267 3.634 1.441 0 2.63-0.773 2.843-2.242h-0.919z" fill-opacity=".98824" fill="#231f20"/>
   </g>
   <g>
    <path d="m137.25 127.15h1.9664v-16.511h-1.9664v16.511z"/>
    <path d="m142.16 113.05h1.9664v-2.4066h-1.9664v2.4066zm0 14.104h1.9664v-11.956h-1.9664v11.956z"/>
    <path d="m147.03 115.2h1.8492v1.7583h0.0478c0.87794-1.342 2.22-2.0358 3.861-2.0358 1.4568 0 2.7989 0.57892 3.2845 2.0358 0.80856-1.2726 2.22-2.0358 3.7438-2.0358 2.3826 0 3.9782 0.99516 3.9782 3.4687v8.765h-1.9664v-7.8392c0-1.4808-0.39232-2.6601-2.3109-2.6601-1.897 0-3.1218 1.2033-3.1218 3.0524v7.4469h-1.9664v-7.8392c0-1.5501-0.48562-2.6601-2.2439-2.6601-2.3348 0-3.1888 2.1506-3.1888 3.0524v7.4469h-1.9664v-11.956z"/>
    <path d="m177.32 127.1c-0.34687 0.20812-0.78703 0.32295-1.4114 0.32295-1.0167 0-1.665-0.55499-1.665-1.8492-1.0861 1.2726-2.5429 1.8492-4.2079 1.8492-2.1745 0-3.9543-0.97124-3.9543-3.3515 0-2.7056 2.0118-3.2845 4.0476-3.6768 2.1721-0.41624 4.0237-0.2775 4.0237-1.7583 0-1.7104-1.4114-1.9879-2.6601-1.9879-1.665 0-2.8898 0.50715-2.9831 2.2654h-1.9664c0.11721-2.9592 2.4066-3.9998 5.0643-3.9998 2.1506 0 4.4878 0.48562 4.4878 3.2821v6.1527c0 0.92339 0 1.342 0.62437 1.342 0.16028 0 0.34447-0.0239 0.60044-0.11722v1.5262zm-3.1912-6.1288c-0.76311 0.55499-2.2439 0.57891-3.562 0.80856-1.2942 0.23204-2.4042 0.69613-2.4042 2.153 0 1.2942 1.11 1.7583 2.3133 1.7583 2.5884 0 3.6529-1.6195 3.6529-2.7056v-2.0142z"/>
    <path d="m181.76 115.2h2.3826v1.7343h-2.3826v7.423c0 0.90185 0.25597 1.0645 1.4808 1.0645h0.90186v1.7344h-1.5023c-2.0358 0-2.8443-0.41624-2.8443-2.6147v-7.6072h-2.0358v-1.7343h2.0358v-3.5835h1.964v3.5835z"/>
    <path d="m196.04 123.36c-0.53107 2.6362-2.4281 4.0691-5.1097 4.0691-3.8156 0-5.6193-2.6362-5.7365-6.2891 0-3.5835 2.3611-6.2221 5.6193-6.2221 4.2318 0 5.5284 3.9567 5.4135 6.8465h-8.9492c-0.0718 2.0812 1.11 3.9304 3.7223 3.9304 1.6171 0 2.751-0.78704 3.0979-2.3348h1.9425zm-1.897-3.3299c-0.0909-1.8731-1.5023-3.3754-3.4448-3.3754-2.0573 0-3.2845 1.5478-3.4208 3.3754h6.8656z"/>
    <path d="m216.63 115.61c-0.46169-2.3348-2.3348-3.5141-4.6241-3.5141-3.9328 0-5.5954 3.2366-5.5954 6.6814 0 3.7701 1.6626 6.9158 5.6169 6.9158 2.8922 0 4.5571-2.0358 4.7653-4.7629h2.196c-0.41624 4.1146-2.9831 6.612-7.1455 6.612-5.1337 0-7.6311-3.7916-7.6311-8.6024 0-4.7868 2.7295-8.6932 7.8153-8.6932 3.4472 0 6.2915 1.8492 6.7986 5.3633h-2.196z"/>
    <path d="m221.3 110.64h1.9664v6.313h0.0454c0.64828-1.4329 2.3348-2.0358 3.7701-2.0358 3.1434 0 4.1146 1.8037 4.1146 4.3706v7.8632h-1.964v-8.0928c0-1.4568-0.92578-2.4042-2.4281-2.4042-2.3826 0-3.5381 1.5932-3.5381 3.7438v6.7532h-1.9664v-16.511z"/>
    <path d="m244.66 127.1c-0.34687 0.20812-0.78703 0.32295-1.4114 0.32295-1.0167 0-1.665-0.55499-1.665-1.8492-1.0861 1.2726-2.5429 1.8492-4.2079 1.8492-2.1745 0-3.9543-0.97124-3.9543-3.3515 0-2.7056 2.0118-3.2845 4.0476-3.6768 2.1721-0.41624 4.0237-0.2775 4.0237-1.7583 0-1.7104-1.4114-1.9879-2.6601-1.9879-1.665 0-2.8898 0.50715-2.9831 2.2654h-1.9664c0.11721-2.9592 2.4066-3.9998 5.0643-3.9998 2.1506 0 4.4878 0.48562 4.4878 3.2821v6.1527c0 0.92339 0 1.342 0.62437 1.342 0.16028 0 0.34447-0.0239 0.60044-0.11722v1.5262zm-3.1912-6.1288c-0.76311 0.55499-2.2439 0.57891-3.562 0.80856-1.2942 0.23204-2.4042 0.69613-2.4042 2.153 0 1.2942 1.11 1.7583 2.3133 1.7583 2.5884 0 3.6529-1.6195 3.6529-2.7056v-2.0142z"/>
    <path d="m246.51 115.2h1.8492v1.897h0.0478c0.8301-1.4808 2.1721-2.1745 3.8849-2.1745 3.1434 0 4.1146 1.8037 4.1146 4.3706v7.8632h-1.964v-8.0952c0-1.4568-0.92578-2.4042-2.4281-2.4042-2.3826 0-3.5381 1.5956-3.5381 3.7462v6.7532h-1.9664v-11.956z"/>
    <path d="m269.59 126.13c0 3.8849-1.7798 5.8728-5.5499 5.8728-2.2439 0-4.8322-0.90186-4.9471-3.5141h1.964c0.0933 1.4329 1.8037 1.9425 3.0979 1.9425 2.5668 0 3.5859-1.8492 3.5859-4.5308v-0.78703h-0.0478c-0.6459 1.4568-2.22 2.1721-3.7223 2.1721-3.5596 0-5.3418-2.7965-5.3418-6.057 0-2.8228 1.3875-6.313 5.526-6.313 1.5047 0 2.8443 0.66982 3.562 1.9879h0.0239v-1.7104h1.8492v10.937zm-1.9425-5.203c0-2.1051-0.92578-4.2772-3.3993-4.2772-2.5214 0-3.5381 2.0573-3.5381 4.3466 0 2.1506 0.78703 4.5548 3.3754 4.5548 2.5908 0 3.562-2.3802 3.562-4.6241"/>
    <path d="m282.69 123.36c-0.53107 2.6362-2.4281 4.0691-5.1097 4.0691-3.8156 0-5.6193-2.6362-5.7365-6.2891 0-3.5835 2.3611-6.2221 5.6193-6.2221 4.2318 0 5.526 3.9567 5.4112 6.8465h-8.9492c-0.0694 2.0812 1.11 3.9304 3.7247 3.9304 1.6171 0 2.751-0.78704 3.0979-2.3348h1.9425zm-1.897-3.3299c-0.0909-1.8731-1.5023-3.3754-3.4448-3.3754-2.0573 0-3.2845 1.5478-3.4232 3.3754h6.868z"/>
    <path d="m303.28 115.61c-0.46169-2.3348-2.3348-3.5141-4.6241-3.5141-3.9328 0-5.5954 3.2366-5.5954 6.6814 0 3.7701 1.6626 6.9158 5.6169 6.9158 2.8922 0 4.5571-2.0358 4.7653-4.7629h2.196c-0.41624 4.1146-2.9831 6.612-7.1455 6.612-5.1337 0-7.6311-3.7916-7.6311-8.6024 0-4.7868 2.7295-8.6932 7.8153-8.6932 3.4472 0 6.2915 1.8492 6.7986 5.3633h-2.196z"/>
    <path d="m318.41 127.1c-0.34687 0.20812-0.78703 0.32295-1.4114 0.32295-1.0167 0-1.665-0.55499-1.665-1.8492-1.0861 1.2726-2.5429 1.8492-4.2079 1.8492-2.1745 0-3.9543-0.97124-3.9543-3.3515 0-2.7056 2.0118-3.2845 4.0476-3.6768 2.1721-0.41624 4.0237-0.2775 4.0237-1.7583 0-1.7104-1.4114-1.9879-2.6601-1.9879-1.665 0-2.8898 0.50715-2.9831 2.2654h-1.9664c0.11721-2.9592 2.4066-3.9998 5.0643-3.9998 2.1506 0 4.4878 0.48562 4.4878 3.2821v6.1527c0 0.92339 0 1.342 0.62437 1.342 0.16028 0 0.34447-0.0239 0.60044-0.11722v1.5262zm-3.1912-6.1288c-0.76311 0.55499-2.2439 0.57891-3.562 0.80856-1.2942 0.23204-2.4042 0.69613-2.4042 2.153 0 1.2942 1.11 1.7583 2.3133 1.7583 2.5884 0 3.6529-1.6195 3.6529-2.7056v-2.0142z"/>
    <path d="m320.26 115.2h1.8492v1.897h0.0478c0.83249-1.4808 2.1721-2.1745 3.8849-2.1745 3.1434 0 4.1146 1.8037 4.1146 4.3706v7.8632h-1.964v-8.0952c0-1.4568-0.92578-2.4042-2.4305-2.4042-2.3802 0-3.5381 1.5956-3.5381 3.7462v6.7532h-1.964v-11.956z"/>
    <path d="m343.62 127.1c-0.34687 0.20812-0.78703 0.32295-1.409 0.32295-1.0191 0-1.6674-0.55499-1.6674-1.8492-1.0861 1.2726-2.5429 1.8492-4.2079 1.8492-2.1745 0-3.9543-0.97124-3.9543-3.3515 0-2.7056 2.0118-3.2845 4.0452-3.6768 2.1745-0.41624 4.0237-0.2775 4.0237-1.7583 0-1.7104-1.409-1.9879-2.6577-1.9879-1.665 0-2.8898 0.50715-2.9831 2.2654h-1.9664c0.11721-2.9592 2.4066-3.9998 5.0643-3.9998 2.1506 0 4.4878 0.48562 4.4878 3.2821v6.1527c0 0.92339 0 1.342 0.62198 1.342 0.16267 0 0.34926-0.0239 0.60283-0.11722v1.5262zm-3.1912-6.1288c-0.76311 0.55499-2.2415 0.57891-3.5596 0.80856-1.2966 0.23204-2.4066 0.69613-2.4066 2.153 0 1.2942 1.11 1.7583 2.3133 1.7583 2.5884 0 3.6529-1.6195 3.6529-2.7056v-2.0142z"/>
    <path d="m356.04 127.15h-1.9664v-1.6171h-0.0454c-0.64589 1.3181-2.1745 1.8946-3.8156 1.8946-3.6768 0-5.5044-2.9137-5.5044-6.2891s1.8037-6.2221 5.459-6.2221c1.2248 0 2.9831 0.46408 3.861 1.8731h0.0454v-6.1503h1.9664v16.511zm-5.5499-1.4568c2.6362 0 3.6529-2.2654 3.6529-4.5093 0-2.3587-1.0621-4.5308-3.7677-4.5308-2.684 0-3.5859 2.2869-3.5859 4.6241 0 2.2415 1.1554 4.416 3.7007 4.416"/>
    <path d="m369.57 127.1c-0.34687 0.20812-0.78703 0.32295-1.4114 0.32295-1.0167 0-1.665-0.55499-1.665-1.8492-1.0861 1.2726-2.5453 1.8492-4.2079 1.8492-2.1745 0-3.9543-0.97124-3.9543-3.3515 0-2.7056 2.0118-3.2845 4.0452-3.6768 2.1745-0.41624 4.0237-0.2775 4.0237-1.7583 0-1.7104-1.409-1.9879-2.6577-1.9879-1.665 0-2.8898 0.50715-2.9831 2.2654h-1.9664c0.11721-2.9592 2.4066-3.9998 5.0643-3.9998 2.153 0 4.4878 0.48562 4.4878 3.2821v6.1527c0 0.92339 0 1.342 0.62437 1.342 0.16028 0 0.34687-0.0239 0.60044-0.11722v1.5262zm-3.1912-6.1288c-0.76311 0.55499-2.2439 0.57891-3.562 0.80856-1.2942 0.23204-2.4042 0.69613-2.4042 2.153 0 1.2942 1.11 1.7583 2.3133 1.7583 2.5884 0 3.6529-1.6195 3.6529-2.7056v-2.0142z"/>
   </g>
  </g>
 </g>
</svg>
